<?xml version="1.0" encoding="utf-8"?>
<!-- Generator: Adobe Illustrator 24.1.0, SVG Export Plug-In . SVG Version: 6.00 Build 0)  -->
<svg version="1.1" id="Layer_1" xmlns="http://www.w3.org/2000/svg" xmlns:xlink="http://www.w3.org/1999/xlink" x="0px" y="0px"
	 viewBox="0 0 650 400" style="enable-background:new 0 0 650 400;" xml:space="preserve">
<style type="text/css">
	.st0{fill:#A08A4E;}
	.st1{fill:#6E572B;}
	.st2{fill:#9F804C;}
	.st3{fill:#876839;}
	.st4{fill:#A58A53;}
	.st5{fill:#6F5736;}
	.st6{fill:#3E3320;}
	.st7{fill:#8E6E3C;}
	.st8{fill:#805935;}
	.st9{fill:#715028;}
	.st10{fill:#947349;}
	.st11{fill:#4E391B;}
	.st12{fill:#877854;}
	.st13{fill:#AE8B45;}
	.st14{fill:#5E4621;}
	.st15{fill:#161410;}
	.st16{fill:#876B49;}
	.st17{fill:#A58350;}
	.st18{fill:#5F411D;}
	.st19{fill:#625240;}
	.st20{fill:#7B6E4F;}
	.st21{fill:#9E8154;}
	.st22{fill:#C09D56;}
	.st23{fill:#766B41;}
	.st24{fill:#917954;}
	.st25{fill:#A08558;}
	.st26{fill:#906941;}
	.st27{fill:#161B18;}
	.st28{fill:#624A32;}
	.st29{fill:#2C2D22;}
	.st30{fill:#3F321C;}
	.st31{fill:#2B2B2C;}
	.st32{fill:#624E42;}
	.st33{fill:#5A4321;}
	.st34{fill:#513D20;}
	.st35{fill:#5B4728;}
	.st36{fill:#4F361C;}
	.st37{fill:#513D1B;}
	.st38{fill:#433F35;}
	.st39{fill:#5B3F1E;}
	.st40{fill:#6F532D;}
	.st41{fill:#514023;}
	.st42{fill:#664E2A;}
	.st43{fill:#916A3E;}
	.st44{fill:#8C7053;}
	.st45{fill:#AF8748;}
	.st46{fill:#2F2516;}
	.st47{fill:#1A190F;}
	.st48{fill:#8F6D41;}
	.st49{fill:#3B351C;}
	.st50{fill:#976639;}
	.st51{fill:#624A28;}
	.st52{fill:#312E1C;}
	.st53{fill:#403A29;}
	.st54{fill:#383224;}
	.st55{fill:#6E542D;}
	.st56{fill:#151912;}
	.st57{fill:#8B714F;}
	.st58{fill:#292211;}
	.st59{fill:#282215;}
	.st60{fill:#BF9D64;}
	.st61{fill:#4C4020;}
	.st62{fill:#392B1E;}
	.st63{fill:#9E8248;}
	.st64{fill:#9E8D5D;}
	.st65{fill:#37351B;}
	.st66{fill:#324123;}
	.st67{fill:#0E100D;}
	.st68{fill:#0C0B0A;}
	.st69{fill:#AF9D6A;}
	.st70{fill:#52412E;}
	.st71{fill:#7C6850;}
	.st72{fill:#443D3A;}
	.st73{fill:#787552;}
	.st74{fill:#313024;}
	.st75{fill:#A89C81;}
	.st76{fill:#4A3E2A;}
	.st77{fill:#3B2918;}
	.st78{fill:#232720;}
	.st79{fill:#171813;}
	.st80{fill:#A58257;}
	.st81{fill:#6C6B64;}
	.st82{fill:#836846;}
	.st83{fill:#554020;}
	.st84{fill:#89724D;}
	.st85{fill:#64593F;}
	.st86{fill:#A96E6D;}
	.st87{fill:#9D968A;}
	.st88{fill:#0D1110;}
	.st89{fill:#AD8A5B;}
	.st90{fill:#655133;}
	.st91{fill:#918972;}
	.st92{fill:#A58F74;}
	.st93{fill:#0D100E;}
	.st94{fill:#C6AB7A;}
	.st95{fill:#B48C52;}
	.st96{fill:#E6C686;}
	.st97{fill:#DCC279;}
	.st98{fill:#BAB292;}
	.st99{fill:#957E71;}
	.st100{fill:#0C0F0E;}
	.st101{fill:#A29C6B;}
	.st102{fill:#CBAE66;}
	.st103{fill:#BFA05F;}
	.st104{fill:#D8C686;}
	.st105{fill:#E3D1A6;}
	.st106{fill:#B9B49E;}
	.st107{fill:#222B1A;}
	.st108{fill:#9C7A44;}
	.st109{fill:#C3AF74;}
	.st110{fill:#C6B983;}
	.st111{fill:#0F161A;}
	.st112{fill:#B79046;}
	.st113{fill:#281910;}
	.st114{fill:#DACA91;}
	.st115{fill:#B9A66D;}
	.st116{fill:#45433A;}
	.st117{fill:#374029;}
	.st118{fill:#CCB471;}
	.st119{fill:#0E1A27;}
	.st120{fill:#53697A;}
	.st121{fill:#515143;}
	.st122{fill:#64543F;}
	.st123{fill:#D1BB82;}
	.st124{fill:#9C8954;}
	.st125{fill:#BBAB75;}
	.st126{fill:#7B5925;}
	.st127{fill:#A27E3B;}
	.st128{fill:#865E28;}
	.st129{fill:#7A5E37;}
	.st130{fill:#B99F60;}
	.st131{fill:#0C100F;}
	.st132{fill:#CACDBD;}
	.st133{fill:#AFA99C;}
	.st134{fill:#C1B07E;}
	.st135{fill:#6B5233;}
	.st136{fill:#9E7F54;}
	.st137{fill:#D1C485;}
	.st138{fill:#9C9484;}
	.st139{fill:#654319;}
	.st140{fill:#A2947A;}
	.st141{fill:#86673B;}
	.st142{fill:#D9E3D5;}
	.st143{fill:#C5C4AE;}
	.st144{fill:#D7E0D1;}
	.st145{fill:#AB884D;}
	.st146{fill:#A8AFAD;}
	.st147{fill:#B08B4F;}
	.st148{fill:#BFB895;}
	.st149{fill:#C0BDAA;}
	.st150{fill:#E6D091;}
	.st151{fill:#D4BE7E;}
	.st152{fill:#D6E3DE;}
	.st153{fill:#BCC2BD;}
	.st154{fill:#CEDACC;}
	.st155{fill:#2E291A;}
	.st156{fill:#352716;}
	.st157{fill:#7C542B;}
	.st158{fill:#A37A44;}
	.st159{fill:#705730;}
	.st160{fill:#312A1B;}
	.st161{fill:#855C37;}
	.st162{fill:#D1BF81;}
	.st163{fill:#DAB87B;}
	.st164{fill:#E1BE7D;}
	.st165{fill:#4B4E41;}
	.st166{fill:#BE9C70;}
	.st167{fill:#B9B489;}
	.st168{fill:#D3DCD1;}
	.st169{fill:#CED9CB;}
	.st170{fill:#CDDACA;}
	.st171{fill:#BCA86D;}
	.st172{fill:#DCE0CD;}
	.st173{fill:#EBEBB3;}
	.st174{fill:#9F8558;}
	.st175{fill:#88683F;}
	.st176{fill:#9F7E47;}
	.st177{fill:#0B0D0E;}
	.st178{fill:#ADA081;}
	.st179{fill:#BBA572;}
	.st180{fill:#101C24;}
	.st181{fill:#1E1F1D;}
	.st182{fill:#DFCE8C;}
	.st183{fill:#DCD18D;}
	.st184{fill:#CEBB85;}
	.st185{fill:#B8BFB7;}
	.st186{fill:#D2DBCC;}
	.st187{fill:#9A9184;}
	.st188{fill:#B99D76;}
	.st189{fill:#D8C98F;}
	.st190{fill:#8B8F98;}
	.st191{fill:#C4A975;}
	.st192{fill:#ABBBBE;}
	.st193{fill:#E4DC96;}
	.st194{fill:#8F927B;}
	.st195{fill:#E2EBD5;}
	.st196{fill:#CBB7A4;}
	.st197{fill:#8C775F;}
	.st198{fill:#D8B37A;}
</style>
<g id="Layer_1_1_">
</g>
<image style="overflow:visible;" width="650" height="400" xlink:href="../../amur_leopard.jpg"  transform="matrix(0.9995 0 0 1 0 0)">
</image>
<g id="Layer_2_1_">
	<g id="XMLID_1_">
		<g>
			<polygon class="st0" points="345.9,36.6 330.9,46.1 335.3,32.6 			"/>
			<polygon class="st1" points="453.3,26.5 451.7,46.1 433.6,35.7 			"/>
			<polygon class="st2" points="470.1,38.1 453.3,32.6 453.3,26.5 			"/>
			<polygon class="st3" points="470.1,38.1 451.7,46.1 453.3,32.6 			"/>
			<polygon class="st4" points="470.1,38.1 470.1,54 451.7,46.1 			"/>
			<polygon class="st5" points="470.1,54 463.3,70.5 451.7,46.1 			"/>
			<polygon class="st6" points="451.7,46.1 463.3,70.5 438.3,59.6 			"/>
			<polygon class="st7" points="451.7,46.1 438.3,59.6 433.6,35.7 			"/>
			<polygon class="st8" points="433.6,35.7 438.3,59.6 418.7,48.1 			"/>
			<polygon class="st9" points="438.3,59.6 428.1,71.3 418.7,48.1 			"/>
			<polygon class="st10" points="418.7,48.1 389.8,73.1 403.6,38.1 			"/>
			<polygon class="st11" points="418.7,48.1 428.1,71.3 389.8,73.1 			"/>
			<polygon class="st12" points="428.1,71.3 439,83.4 409,86.5 			"/>
			<polygon class="st13" points="438.3,59.6 453.3,74.8 428.1,71.3 			"/>
			<polygon class="st14" points="463.3,70.5 453.3,74.8 438.3,59.6 			"/>
			<polygon class="st15" points="463.3,70.5 460.5,85.5 453.3,74.8 			"/>
			<polygon class="st16" points="453.3,74.8 460.5,85.5 453.3,99.2 			"/>
			<polygon class="st17" points="453.3,74.8 453.3,99.2 439,83.4 428.1,71.3 			"/>
			<polygon class="st18" points="439,83.4 453.3,99.2 440.7,109.6 			"/>
			<polygon class="st19" points="439,83.4 440.7,109.6 428.1,100.4 409,86.5 			"/>
			<polygon class="st20" points="428.1,100.4 412.8,106.8 391.7,100.1 			"/>
			<polygon class="st21" points="409,86.5 428.1,100.4 391.7,100.1 			"/>
			<polygon class="st22" points="428.1,71.3 409,86.5 391.7,100.1 390.9,87.5 389.8,73.1 			"/>
			<polygon class="st23" points="389.8,73.1 390.8,87.4 371.9,72.6 			"/>
			<polygon class="st24" points="390.8,87.4 390.8,87.5 370.1,106.8 371.9,72.6 			"/>
			<polygon class="st25" points="371.9,72.6 370.1,106.8 347.7,87.5 			"/>
			<polygon class="st26" points="370.1,106.8 348.1,110.2 345.1,101.9 347.7,87.5 347.7,87.5 			"/>
			<polygon class="st27" points="650,258.3 650,357.5 608,303.1 			"/>
			<polygon class="st28" points="650,221.9 650,258.3 616.1,236.9 			"/>
			<polygon class="st29" points="650,258.3 608,303.1 616.1,236.9 			"/>
			<polygon class="st30" points="608,303.1 650,357.5 616.1,372.3 			"/>
			<polygon class="st31" points="650,221.9 616.1,236.9 598,215.1 			"/>
			<polygon class="st32" points="598,215.1 616.1,236.9 578.5,228.3 			"/>
			<polygon class="st33" points="616.1,236.9 608,303.1 578.5,228.3 			"/>
			<polygon class="st34" points="608,303.1 616.1,372.3 546.8,371.2 			"/>
			<polygon class="st35" points="578.5,228.3 608,303.1 546.8,263.5 			"/>
			<polygon class="st36" points="608,303.1 546.8,371.2 510.7,304.3 512,304.3 512,304.3 			"/>
			<polygon class="st37" points="608,303.1 512,304.3 546.8,263.5 			"/>
			<polygon class="st38" points="598,215.1 578.5,228.3 541.3,199 			"/>
			<polygon class="st39" points="578.5,228.3 546.8,263.5 541.3,199 			"/>
			<polygon class="st40" points="541.3,199 546.8,263.5 495.1,203 			"/>
			<polygon class="st41" points="495.1,203 546.8,263.5 445.5,270 			"/>
			<polygon class="st42" points="546.8,263.5 510.7,304.3 445.5,270 			"/>
			<polygon class="st43" points="510.7,304.3 546.8,371.2 440.3,385.5 			"/>
			<polygon class="st44" points="541.3,199 495.1,203 496.2,170.5 			"/>
			<polygon class="st45" points="510.7,304.3 440.3,385.5 361.3,341.4 			"/>
			<polygon class="st46" points="510.7,304.3 361.3,341.4 445.5,270 			"/>
			<polygon class="st47" points="473.8,136.1 496.2,170.5 448.4,148.5 			"/>
			<polygon class="st48" points="496.2,170.5 495.1,203 416.4,185.4 458.4,177.9 			"/>
			<polygon class="st49" points="496.2,170.5 458.2,177.6 448.4,148.5 			"/>
			<polygon class="st50" points="495.1,203 445.5,270 416.4,185.4 			"/>
			<polygon class="st51" points="453.3,99.2 473.8,136.1 440.7,109.6 			"/>
			<polygon class="st52" points="473.8,136.1 448.4,148.5 440.7,109.6 			"/>
			<polygon class="st53" points="448.4,148.5 458.2,177.6 457.6,177.7 418.7,163 			"/>
			<polygon class="st54" points="418.7,163 457.6,177.7 416.4,185.4 			"/>
			<polygon class="st55" points="440.7,109.6 448.4,148.5 432.2,116.3 			"/>
			<polygon class="st56" points="432.2,116.3 448.4,148.5 418.7,121.7 			"/>
			<polygon class="st57" points="448.4,148.5 418.7,163 418.7,121.7 			"/>
			<polygon class="st58" points="416.4,185.4 445.5,270 393.2,215.1 			"/>
			<polygon class="st59" points="393.2,215.1 445.5,270 383.4,228.3 			"/>
			<polygon class="st60" points="445.5,270 361.3,341.4 298,264.1 			"/>
			<polygon class="st61" points="445.5,270 298,264.1 383.4,228.3 			"/>
			<polygon class="st62" points="440.7,109.6 432.2,116.3 428.1,100.4 			"/>
			<polygon class="st63" points="440.3,385.5 331.1,389 361.3,341.4 			"/>
			<polygon class="st64" points="424.4,112.6 412.8,106.8 428.1,100.4 432.2,116.3 424.8,112.8 			"/>
			<polygon class="st65" points="432.2,116.3 418.7,121.7 424.8,112.8 			"/>
			<polygon class="st66" points="424.8,112.8 418.7,121.7 402.9,118.6 412.4,116.1 			"/>
			<polygon class="st67" points="424.4,112.6 412.4,116.1 408.3,112.2 			"/>
			<polygon class="st68" points="424.4,112.6 408.3,112.2 412.8,106.8 			"/>
			<polygon class="st69" points="418.7,121.7 418.7,163 399,136.1 			"/>
			<polygon class="st70" points="399,136.1 418.7,163 396.6,175.4 			"/>
			<polygon class="st71" points="418.7,163 416.4,185.4 396.6,175.4 			"/>
			<polygon class="st72" points="418.7,121.7 399,136.1 409,124.5 			"/>
			<polygon class="st73" points="418.7,121.7 409,124.5 402.9,118.6 			"/>
			<polygon class="st74" points="416.4,185.4 393.2,215.1 365.6,205.4 			"/>
			<polygon class="st75" points="416.4,185.4 365.6,205.4 370,194.5 			"/>
			<polygon class="st76" points="416.4,185.4 370,194.5 396.6,175.4 			"/>
			<polygon class="st77" points="412.8,106.8 408.3,112.2 402.9,118.6 402.9,118.6 393.6,129.6 391.7,100.1 			"/>
			<polygon class="st78" points="412.4,116.1 402.9,118.6 408.3,112.2 			"/>
			<polygon class="st79" points="409,124.5 399,136.1 402.9,118.6 402.9,118.6 			"/>
			<polygon class="st80" points="403.6,38.1 389.8,73.1 371.9,45.2 			"/>
			<polygon class="st81" points="403.6,38.1 371.9,45.2 373,31.4 			"/>
			<polygon class="st82" points="402.9,118.6 399,136.1 393.6,129.6 			"/>
			<polygon class="st83" points="393.6,129.6 399,136.1 396.6,175.4 			"/>
			<polygon class="st84" points="393.6,129.6 396.6,175.4 370.1,106.8 390.8,87.5 391.7,100.1 			"/>
			<polygon class="st85" points="370.1,106.8 396.6,175.4 348.9,167 			"/>
			<polygon class="st86" points="396.6,175.4 370,194.5 348.9,167 			"/>
			<polygon class="st87" points="393.2,215.1 383.4,228.3 353.1,219.2 			"/>
			<polygon class="st88" points="393.2,215.1 353.1,219.2 365.6,205.4 			"/>
			<polygon class="st89" points="371.9,45.2 389.8,73.1 371.9,72.6 350.5,72.1 			"/>
			<polygon class="st90" points="383.4,228.3 298,264.1 330.5,226.2 			"/>
			<polygon class="st91" points="383.4,228.3 330.5,226.2 353.1,219.2 			"/>
			<polygon class="st92" points="373,31.4 371.9,45.2 345.9,36.6 			"/>
			<polygon class="st93" points="371.9,45.2 350.5,72.1 345.9,36.6 			"/>
			<polygon class="st94" points="371.9,72.6 347.7,87.5 350.5,72.1 			"/>
			<polygon class="st95" points="370.1,106.8 348.9,167 351.8,125.9 			"/>
			<polygon class="st96" points="370.1,106.8 351.8,125.9 348.1,110.2 			"/>
			<polygon class="st97" points="348.9,167 370,194.5 322.6,173.9 			"/>
			<polygon class="st98" points="370,194.5 365.6,205.4 351,199 			"/>
			<polygon class="st99" points="370,194.5 309.5,208.1 322.6,173.9 			"/>
			<polygon class="st100" points="365.6,205.4 353.1,219.2 341,210 			"/>
			<polygon class="st101" points="365.6,205.4 341,209.7 351,199 			"/>
			<polygon class="st102" points="298,264.1 361.3,341.4 318.8,312.3 			"/>
			<polygon class="st103" points="361.3,341.4 331.1,389 302.4,366.6 			"/>
			<polygon class="st104" points="361.3,341.4 302.4,366.6 297,329.9 315.4,333.2 			"/>
			<polygon class="st105" points="361.3,341.4 315.4,333.2 318.8,312.3 			"/>
			<polygon class="st106" points="353.1,219.2 330.5,226.2 340.7,210.1 341,210 			"/>
			<polygon class="st107" points="348.1,110.2 351.8,125.9 339.2,114.5 			"/>
			<polygon class="st108" points="351.8,125.9 348.9,167 337,152 			"/>
			<polygon class="st109" points="351.8,125.9 337,152 329.5,117.1 			"/>
			<polygon class="st110" points="351.8,125.9 329.5,117.1 339.2,114.5 			"/>
			<polygon class="st111" points="351,199 341,209.7 340.7,209.7 340.5,210 309.5,208.1 			"/>
			<polygon class="st112" points="345.9,36.6 350.5,72.1 330.9,46.1 			"/>
			<polygon class="st113" points="330.9,46.1 350.5,72.1 322.6,72.1 			"/>
			<polygon class="st114" points="350.5,72.1 347.7,87.5 345.1,101.9 344.9,101.6 345,101.6 344.9,101.6 322.6,72.1 			"/>
			<polygon class="st115" points="337,152 348.9,167 322.6,173.9 			"/>
			<polygon class="st116" points="345.1,101.9 348.1,110.2 341.8,106.8 			"/>
			<polygon class="st117" points="348.1,110.2 339.2,114.5 327.2,99.2 336.5,104.1 341.6,106.7 341.8,106.8 			"/>
			<polygon class="st118" points="344.9,101.6 327.2,99.2 322.6,72.1 			"/>
			<polygon class="st119" points="344.8,101.9 341.6,106.7 336.5,104.1 344.3,101.8 			"/>
			<polygon class="st120" points="344.3,101.8 336.5,104.1 327.2,99.2 			"/>
			<polygon class="st121" points="340.5,210 330.5,226.2 309.5,208.1 			"/>
			<polygon class="st122" points="327.2,99.2 339.2,114.5 313.6,109.6 			"/>
			<polygon class="st123" points="339.2,114.5 329.5,117.1 307.6,123.1 313.6,109.6 			"/>
			<polygon class="st124" points="329.5,117.1 337,152 314.1,145.1 314.1,145.1 314.1,145.1 			"/>
			<polygon class="st125" points="337,152 322.6,173.9 314.1,145.1 			"/>
			<polygon class="st126" points="317,9.5 335.3,32.6 306,15.6 			"/>
			<polygon class="st127" points="335.3,32.6 330.9,46.1 322.6,72.1 307.6,59.6 			"/>
			<polygon class="st128" points="335.3,32.6 307.6,59.6 307.6,36.1 316,34.7 			"/>
			<polygon class="st129" points="335.3,32.6 320.6,34 306,15.6 306,15.6 306,15.6 			"/>
			<polygon class="st130" points="331.1,389 301.9,386.6 309,377.3 			"/>
			<polygon class="st131" points="331.1,389 309,377.3 302.4,366.6 			"/>
			<polygon class="st132" points="330.5,226.2 298,264.1 284.4,225.3 			"/>
			<polygon class="st133" points="330.5,226.2 284.4,225.3 309.5,208.1 			"/>
			<polygon class="st134" points="329.5,117.1 314.1,145.1 307.6,123.1 			"/>
			<polygon class="st135" points="322.6,72.1 327.2,99.2 300.7,84.5 			"/>
			<polygon class="st136" points="327.2,99.2 313.6,109.6 300.7,84.5 			"/>
			<polygon class="st137" points="314.1,145.1 322.6,173.9 296,151.4 307.6,123.1 314.1,145.1 			"/>
			<polygon class="st138" points="322.6,173.9 309.5,208.1 289,167 			"/>
			<polygon class="st139" points="322.6,72.1 300.7,84.5 307.6,59.6 			"/>
			<polygon class="st140" points="322.6,173.9 289,167 296,151.4 			"/>
			<polygon class="st141" points="306,15.6 320.6,34 316,34.7 307.6,35.7 			"/>
			<polygon class="st142" points="298,264.1 318.8,312.3 304.1,300.7 304.1,300.7 303.6,297.7 			"/>
			<polygon class="st143" points="318.8,312.3 315.4,333.2 308.5,326.8 			"/>
			<polygon class="st144" points="318.8,312.3 308.5,326.8 304.1,300.7 			"/>
			<polygon class="st145" points="317,9.5 306,15.6 306,15.6 293.8,22.5 294.3,3.2 			"/>
			<polygon class="st146" points="315.4,333.2 297,329.5 308.5,326.8 			"/>
			<polygon class="st147" points="300.7,84.5 313.6,109.6 307.6,123.1 301.8,135.9 			"/>
			<polygon class="st148" points="289,167 309.5,208.1 282.5,191 			"/>
			<polygon class="st149" points="309.5,208.1 284.4,225.3 282.5,191 			"/>
			<polygon class="st150" points="302.4,366.6 309,377.3 285,378.9 			"/>
			<polygon class="st151" points="309,377.3 301.9,386.6 285,378.9 			"/>
			<polygon class="st152" points="304.1,300.7 308.5,326.8 284.4,310.5 300.8,281.5 303.6,297.7 			"/>
			<polygon class="st153" points="308.5,326.8 273.4,335 273.4,335 246.2,341.4 253.7,318.2 			"/>
			<polygon class="st154" points="308.5,326.8 253.7,318.2 257.5,292.3 284.4,310.5 			"/>
			<polygon class="st155" points="307.6,36.1 307.6,59.6 293.4,36.6 307.5,35.7 			"/>
			<polygon class="st156" points="293.4,36.6 307.6,59.6 290.3,51 			"/>
			<polygon class="st157" points="307.6,59.6 300.7,84.5 284.3,83.5 			"/>
			<polygon class="st158" points="307.6,59.6 284.3,83.5 279.8,63.3 			"/>
			<polygon class="st159" points="307.6,59.6 279.8,63.3 290.3,51 			"/>
			<polygon class="st160" points="307.5,35.7 307.5,35.7 293.4,36.6 293.8,22.5 			"/>
			<polygon class="st161" points="306,15.6 307.5,35.7 293.8,22.5 			"/>
			<polygon class="st162" points="296.7,329.8 302.4,366.6 271,356.5 			"/>
			<polygon class="st163" points="302.4,366.6 285,378.9 271,356.5 			"/>
			<polygon class="st164" points="301.9,386.6 278,385.5 285,378.9 			"/>
			<polygon class="st165" points="300.7,84.5 301.8,135.9 284.3,113.2 			"/>
			<polygon class="st166" points="284.3,113.2 301.8,135.9 279.8,143.4 			"/>
			<polygon class="st167" points="301.8,135.9 289,167 279.8,143.4 			"/>
			<polygon class="st168" points="298,264.1 300.8,281.5 261.3,266.4 			"/>
			<polygon class="st169" points="300.8,281.5 284.4,310.5 257.5,292.3 			"/>
			<polygon class="st170" points="300.8,281.5 257.5,292.3 261.3,266.4 			"/>
			<polygon class="st171" points="300.7,84.5 284.3,113.2 284.3,83.5 			"/>
			<polygon class="st172" points="284.4,225.3 298,264.1 261.3,266.4 			"/>
			<polygon class="st173" points="296.6,329.8 271,356.5 273.4,335 273.4,335 			"/>
			<polygon class="st174" points="294.3,3.2 293.8,22.5 293.4,36.6 278.3,21.8 			"/>
			<polygon class="st175" points="293.4,36.6 290.3,51 278.3,47.2 			"/>
			<polygon class="st176" points="293.4,36.6 278.3,47.2 278.3,21.8 			"/>
			<polygon class="st177" points="290.3,51 279.8,63.3 278.3,47.2 			"/>
			<polygon class="st178" points="279.8,143.4 289,167 282.5,191 			"/>
			<polygon class="st179" points="271,356.5 285,378.9 259.3,372.3 			"/>
			<polygon class="st180" points="285,378.9 278,385.5 259.3,372.3 			"/>
			<polygon class="st181" points="278,385.5 248.9,382 240.5,359.1 259.3,372.3 			"/>
			<polygon class="st182" points="273.4,335 271,356.5 240.5,359.1 			"/>
			<polygon class="st183" points="273.4,335 240.5,359.1 240.5,359.1 240.5,359.1 246.2,341.4 			"/>
			<polygon class="st184" points="271,356.5 259.3,372.3 240.5,359.1 			"/>
			<polygon class="st185" points="261.3,266.4 257.5,292.3 253.7,318.2 250,284.6 			"/>
			<polygon class="st186" points="253.7,318.2 246.2,341.4 219.1,332.1 			"/>
			<polygon class="st187" points="240.5,359.1 248.9,382 219.1,367.8 234.8,343.4 240.5,359.1 			"/>
			<polygon class="st188" points="248.9,382 170.3,374.2 191.1,354.4 219.1,367.8 			"/>
			<polygon class="st189" points="246.2,341.4 240.5,359.1 234.8,343.4 			"/>
			<polygon class="st190" points="246.2,341.4 234.8,343.4 213.9,347.1 219.1,332.1 			"/>
			<polygon class="st191" points="234.8,343.4 219.1,367.8 213.9,347.1 			"/>
			<polygon class="st192" points="219.1,332.1 213.9,347.1 186.4,347.6 			"/>
			<polygon class="st193" points="213.9,347.1 219.1,367.8 191.1,354.4 			"/>
			<polygon class="st194" points="219.1,332.1 186.4,347.6 178.5,351.4 156.1,362 182.8,337.5 			"/>
			<polygon class="st195" points="213.9,347.1 191.1,354.4 186.4,347.6 			"/>
			<polygon class="st196" points="186.4,347.6 191.1,354.4 178.5,351.4 			"/>
			<polygon class="st197" points="191.1,354.4 170.3,374.2 178.5,351.4 			"/>
			<polygon class="st198" points="156.1,362 178.5,351.4 170.3,374.2 			"/>
		</g>
	</g>
</g>
</svg>
