<?xml version="1.0" encoding="utf-8"?>
<!-- Generator: Adobe Illustrator 24.1.0, SVG Export Plug-In . SVG Version: 6.00 Build 0)  -->
<svg version="1.1" id="Layer_1" xmlns="http://www.w3.org/2000/svg" xmlns:xlink="http://www.w3.org/1999/xlink" x="0px" y="0px"
	 viewBox="0 0 650 434" style="enable-background:new 0 0 650 434;" xml:space="preserve">
<style type="text/css">
	.st0{fill:#0A0B09;}
	.st1{fill:#969688;}
	.st2{fill:#956F47;}
	.st3{fill:#2B2523;}
	.st4{fill:#2C2018;}
	.st5{fill:#5F4626;}
	.st6{fill:#1F2224;}
	.st7{fill:#513E2B;}
	.st8{fill:#97846D;}
	.st9{fill:#8F714A;}
	.st10{fill:#B1946D;}
	.st11{fill:#FAFCF9;}
	.st12{fill:#B4BBB7;}
	.st13{fill:#959F8A;}
	.st14{fill:#B2BFAB;}
	.st15{fill:#171A12;}
	.st16{fill:#0D0F0E;}
	.st17{fill:#0B0C0B;}
	.st18{fill:#181813;}
	.st19{fill:#CDCBB3;}
	.st20{fill:#A37B44;}
	.st21{fill:#0B0E0C;}
	.st22{fill:#E5EDEC;}
	.st23{fill:#D0D7D5;}
	.st24{fill:#171E1B;}
	.st25{fill:#BC9F74;}
	.st26{fill:#1D2220;}
	.st27{fill:#666457;}
	.st28{fill:#D9E0DE;}
	.st29{fill:#D0D1CC;}
	.st30{fill:#9F977E;}
	.st31{fill:#B8A473;}
	.st32{fill:#D6CBB5;}
	.st33{fill:#D8C6A4;}
	.st34{fill:#CEA976;}
	.st35{fill:#A17248;}
	.st36{fill:#1B1611;}
	.st37{fill:#D2A772;}
	.st38{fill:#0F1311;}
	.st39{fill:#E2E6E8;}
	.st40{fill:#C69D70;}
	.st41{fill:#574B37;}
	.st42{fill:#D8B987;}
	.st43{fill:#747769;}
	.st44{fill:#1F1E18;}
	.st45{fill:#DEE0D1;}
	.st46{fill:#624B30;}
	.st47{fill:#0C0D0C;}
	.st48{fill:#F5D5A8;}
	.st49{fill:#BF9E73;}
	.st50{fill:#858A7D;}
	.st51{fill:#866E50;}
	.st52{fill:#DDDDD0;}
	.st53{fill:#DFE4DD;}
	.st54{fill:#F3CC9F;}
	.st55{fill:#765129;}
	.st56{fill:#C5C5B8;}
	.st57{fill:#767063;}
	.st58{fill:#838580;}
	.st59{fill:#B6BAAF;}
	.st60{fill:#AE8D70;}
	.st61{fill:#C89C67;}
	.st62{fill:#715039;}
	.st63{fill:#F8F9F9;}
	.st64{fill:#DEDFDC;}
	.st65{fill:#D9E0E1;}
	.st66{fill:#B0896A;}
	.st67{fill:#C8A27F;}
	.st68{fill:#C9C8BB;}
	.st69{fill:#D8AD7A;}
	.st70{fill:#C59F6B;}
	.st71{fill:#BF9562;}
	.st72{fill:#C4A67F;}
	.st73{fill:#151210;}
	.st74{fill:#282925;}
	.st75{fill:#65696B;}
	.st76{fill:#0A0B0B;}
	.st77{fill:#414532;}
	.st78{fill:#3A341E;}
	.st79{fill:#DFB782;}
	.st80{fill:#222528;}
	.st81{fill:#F6F7F2;}
	.st82{fill:#D1B892;}
	.st83{fill:#736044;}
	.st84{fill:#BD9664;}
	.st85{fill:#D0D9D1;}
	.st86{fill:#707671;}
	.st87{fill:#1C1816;}
	.st88{fill:#A5A799;}
	.st89{fill:#7F6C56;}
	.st90{fill:#1D1D13;}
	.st91{fill:#121111;}
	.st92{fill:#C4A581;}
	.st93{fill:#EBE9E3;}
	.st94{fill:#A48357;}
	.st95{fill:#8C714F;}
	.st96{fill:#7D4E23;}
	.st97{fill:#81765D;}
	.st98{fill:#B7BFC6;}
	.st99{fill:#5B5542;}
	.st100{fill:#A07D5B;}
	.st101{fill:#935A2E;}
	.st102{fill:#C7A37A;}
	.st103{fill:#12191B;}
	.st104{fill:#BD7C48;}
	.st105{fill:#776B4E;}
	.st106{fill:#121413;}
	.st107{fill:#090A09;}
	.st108{fill:#BF9360;}
	.st109{fill:#455057;}
	.st110{fill:#9D7658;}
	.st111{fill:#C28E74;}
	.st112{fill:#6D471E;}
	.st113{fill:#BB9673;}
	.st114{fill:#4D2E1D;}
	.st115{fill:#808886;}
	.st116{fill:#141514;}
	.st117{fill:#47432C;}
	.st118{fill:#D0AB85;}
	.st119{fill:#ABA387;}
	.st120{fill:#9C8A78;}
	.st121{fill:#E4B789;}
	.st122{fill:#C7AB8E;}
	.st123{fill:#DEAB77;}
	.st124{fill:#5C4432;}
	.st125{fill:#40494C;}
	.st126{fill:#0B0C0C;}
	.st127{fill:#6C4933;}
	.st128{fill:#513C2E;}
	.st129{fill:#C0865A;}
	.st130{fill:#2A2E2A;}
	.st131{fill:#353B36;}
	.st132{fill:#262923;}
	.st133{fill:#85563B;}
	.st134{fill:#787469;}
	.st135{fill:#C2A27F;}
	.st136{fill:#E8BA81;}
	.st137{fill:#0D0B0B;}
	.st138{fill:#93A19F;}
	.st139{fill:#403E26;}
	.st140{fill:#302213;}
	.st141{fill:#292C26;}
	.st142{fill:#412A16;}
	.st143{fill:#6A4E3A;}
	.st144{fill:#8D6D52;}
	.st145{fill:#3A3734;}
	.st146{fill:#735F4D;}
	.st147{fill:#9E7754;}
	.st148{fill:#92806A;}
	.st149{fill:#2C2E2E;}
	.st150{fill:#494638;}
	.st151{fill:#404543;}
	.st152{fill:#8F9693;}
	.st153{fill:#171512;}
	.st154{fill:#111111;}
	.st155{fill:#2A2918;}
	.st156{fill:#D4A468;}
	.st157{fill:#524634;}
	.st158{fill:#161714;}
	.st159{fill:#918C78;}
	.st160{fill:#656C65;}
	.st161{fill:#9A9D9E;}
	.st162{fill:#0E0F0F;}
	.st163{fill:#9D7F59;}
	.st164{fill:#15161C;}
	.st165{fill:#141413;}
	.st166{fill:#262518;}
	.st167{fill:#8C785E;}
	.st168{fill:#604B33;}
	.st169{fill:#987D5B;}
	.st170{fill:#A37F54;}
	.st171{fill:#2A271D;}
	.st172{fill:#27160F;}
	.st173{fill:#301D11;}
	.st174{fill:#86877C;}
	.st175{fill:#545753;}
	.st176{fill:#444947;}
	.st177{fill:#0C0D0E;}
	.st178{fill:#BBBCBA;}
	.st179{fill:#121913;}
	.st180{fill:#727976;}
	.st181{fill:#7B8281;}
	.st182{fill:#828A87;}
	.st183{fill:#B1956E;}
	.st184{fill:#D6BE9D;}
	.st185{fill:#745C42;}
	.st186{fill:#C2A171;}
	.st187{fill:#EBD1A8;}
	.st188{fill:#292E2D;}
	.st189{fill:#382B16;}
	.st190{fill:#273031;}
	.st191{fill:#181E22;}
	.st192{fill:#8D877C;}
	.st193{fill:#F9FAFC;}
	.st194{fill:#B09779;}
	.st195{fill:#565349;}
	.st196{fill:#67655E;}
	.st197{fill:#BDA983;}
	.st198{fill:#4D514D;}
	.st199{fill:#141516;}
	.st200{fill:#161715;}
	.st201{fill:#726247;}
	.st202{fill:#7C6B56;}
	.st203{fill:#514D42;}
	.st204{fill:#D3B587;}
	.st205{fill:#D5BA9B;}
	.st206{fill:#9CA09D;}
	.st207{fill:#303838;}
	.st208{fill:#A1A29B;}
	.st209{fill:#0D100E;}
	.st210{fill:#100E0D;}
	.st211{fill:#857457;}
	.st212{fill:#545451;}
	.st213{fill:#80827C;}
	.st214{fill:#293332;}
	.st215{fill:#78807E;}
	.st216{fill:#65665C;}
	.st217{fill:#1B1E1D;}
	.st218{fill:#999681;}
	.st219{fill:#868178;}
	.st220{fill:#7E563C;}
	.st221{fill:#171F20;}
	.st222{fill:#3F3730;}
	.st223{fill:#9F7E59;}
	.st224{fill:#301911;}
	.st225{fill:#25251F;}
	.st226{fill:#6C4D39;}
	.st227{fill:#72523E;}
	.st228{fill:#53382B;}
	.st229{fill:#402A16;}
	.st230{fill:#2E312C;}
	.st231{fill:#474739;}
	.st232{fill:#442918;}
	.st233{fill:#361C11;}
	.st234{fill:#301F10;}
	.st235{fill:#2F2315;}
	.st236{fill:#685E48;}
	.st237{fill:#915832;}
	.st238{fill:#4A3327;}
	.st239{fill:#382013;}
	.st240{fill:#4C2F18;}
	.st241{fill:#452D18;}
	.st242{fill:#93653D;}
	.st243{fill:#7C5A45;}
	.st244{fill:#413D39;}
	.st245{fill:#161413;}
	.st246{fill:#5F3C2A;}
	.st247{fill:#775947;}
	.st248{fill:#3B2215;}
	.st249{fill:#926C57;}
	.st250{fill:#986849;}
	.st251{fill:#0A0C0D;}
	.st252{fill:#5E3C29;}
	.st253{fill:#544B44;}
	.st254{fill:#191410;}
	.st255{fill:#3E2616;}
	.st256{fill:#0C0E0D;}
	.st257{fill:#4D2E17;}
	.st258{fill:#3A2514;}
	.st259{fill:#524641;}
	.st260{fill:#B28663;}
	.st261{fill:#462818;}
	.st262{fill:#271B13;}
	.st263{fill:#502F19;}
	.st264{fill:#3B3B3B;}
	.st265{fill:#3E2C21;}
	.st266{fill:#51361F;}
	.st267{fill:#331F11;}
	.st268{fill:#2B1B11;}
	.st269{fill:#1E160F;}
	.st270{fill:#2C2217;}
	.st271{fill:#A37F66;}
	.st272{fill:#4C3A2E;}
	.st273{fill:#8C6648;}
	.st274{fill:#161412;}
	.st275{fill:#AA774F;}
	.st276{fill:#422615;}
	.st277{fill:#472816;}
	.st278{fill:#1A1612;}
	.st279{fill:#8E6344;}
	.st280{fill:#5B3921;}
	.st281{fill:#3A352A;}
	.st282{fill:#22130C;}
	.st283{fill:#3E2514;}
	.st284{fill:#BB8969;}
	.st285{fill:#634E42;}
	.st286{fill:#5E4C3D;}
	.st287{fill:#7D5D4B;}
	.st288{fill:#906B4D;}
	.st289{fill:#281D15;}
	.st290{fill:#513622;}
	.st291{fill:#432A16;}
	.st292{fill:#B48861;}
	.st293{fill:#BD865E;}
	.st294{fill:#151110;}
	.st295{fill:#80512C;}
	.st296{fill:#8A5C36;}
	.st297{fill:#1F150F;}
	.st298{fill:#513018;}
	.st299{fill:#483E3D;}
	.st300{fill:#2E2E36;}
	.st301{fill:#5E381D;}
	.st302{fill:#946649;}
	.st303{fill:#232C2C;}
	.st304{fill:#BD865D;}
	.st305{fill:#B87F50;}
	.st306{fill:#614F40;}
	.st307{fill:#BC7D4B;}
	.st308{fill:#C1845E;}
	.st309{fill:#AB7B51;}
	.st310{fill:#3C393C;}
	.st311{fill:#C1875B;}
	.st312{fill:#774F2F;}
	.st313{fill:#382316;}
	.st314{fill:#6D411F;}
	.st315{fill:#0E0D0D;}
	.st316{fill:#634120;}
	.st317{fill:#5F3719;}
	.st318{fill:#7E664C;}
	.st319{fill:#8C6249;}
	.st320{fill:#AC7B53;}
	.st321{fill:#472E19;}
	.st322{fill:#0F1110;}
	.st323{fill:#3C403F;}
	.st324{fill:#1C1212;}
	.st325{fill:#452C18;}
</style>
<g id="Layer_1_1_">
</g>
<g id="Layer_2_1_">
	<g id="XMLID_1_">
		<g>
			<polygon class="st0" points="524.8,62.2 524.8,62.7 519.8,66.1 			"/>
			<polygon class="st0" points="544.9,46.3 524.8,62.7 524.8,62.2 			"/>
			<polygon class="st1" points="524.8,46.1 524.8,46.5 524.6,46.6 			"/>
			<polygon class="st1" points="530.9,28.7 525.3,46.1 524.8,46.1 			"/>
			<polygon class="st1" points="525.3,46.1 525.2,46.3 524.8,46.1 			"/>
			<polygon class="st1" points="525.2,46.3 524.8,46.5 524.8,46.1 			"/>
			<polygon class="st1" points="525.2,46.3 524.8,48 524.8,46.5 			"/>
			<polygon class="st1" points="524.8,46.5 524.8,48 519.8,66.1 524.6,46.6 			"/>
			<polygon class="st2" points="497.6,101.8 484.1,95.5 464,85.3 			"/>
			<polygon class="st3" points="349.4,137.7 348.8,138 349,137.3 			"/>
			<polygon class="st3" points="350.3,137.3 349.4,137.7 349,137.3 			"/>
			<polygon class="st4" points="377.3,124.7 350.3,137.3 349,137.3 			"/>
			<polygon class="st5" points="349,137.3 348.8,138 328.8,147.4 			"/>
			<polygon class="st6" points="272,155.1 298.2,184.8 271.6,155.8 			"/>
			<polygon class="st7" points="293,118.8 272,155.1 271.6,154.6 			"/>
			<polygon class="st8" points="316.5,97.4 327.7,88.1 293,118.8 			"/>
			<polygon class="st9" points="524.2,342.2 563.6,434 521.6,369.5 			"/>
			<polygon class="st10" points="521.6,369.5 563.6,434 505.3,434 			"/>
			<polygon class="st11" points="520.7,166.9 556.7,260.8 519.4,225.6 			"/>
			<polygon class="st12" points="556.7,260.8 538,307.3 526.7,257.5 519.4,225.6 			"/>
			<polygon class="st13" points="544.9,46.3 549.8,62.3 543.2,65.3 			"/>
			<polygon class="st14" points="549.8,62.3 536.8,97.8 543.2,65.3 			"/>
			<polygon class="st15" points="539.6,33 544.9,46.3 530.9,28.7 			"/>
			<polygon class="st16" points="530.9,28.7 544.9,46.3 525.3,46.1 			"/>
			<polygon class="st17" points="544.9,46.3 543.2,65.3 505,84.6 			"/>
			<polygon class="st18" points="544.9,46.3 505,84.6 519.8,66.1 524.8,62.7 			"/>
			<polygon class="st0" points="544.9,46.3 524.8,62.2 524.8,48 525.2,46.3 525.3,46.1 			"/>
			<polygon class="st19" points="543.2,65.3 536.8,97.8 527.9,110.4 			"/>
			<polygon class="st20" points="543.2,65.3 527.9,110.4 517.4,91.3 			"/>
			<polygon class="st21" points="543.2,65.3 517.4,91.3 505,84.6 			"/>
			<polygon class="st22" points="526.7,257.5 538,307.3 475.2,311.2 			"/>
			<polygon class="st23" points="538,307.3 530.7,346.3 524.2,342.2 506,330.7 475.2,311.2 			"/>
			<polygon class="st24" points="530.9,28.7 524.8,46.1 516.6,42.4 			"/>
			<polygon class="st25" points="517.4,91.3 527.9,110.4 513.5,123.2 			"/>
			<polygon class="st26" points="519.4,225.6 526.7,257.5 475.2,311.2 			"/>
			<polygon class="st27" points="524.8,48 524.8,62.2 519.8,66.1 			"/>
			<polygon class="st28" points="524.8,46.1 524.6,46.6 486.1,66.8 516.6,42.4 			"/>
			<polygon class="st29" points="524.6,46.6 519.8,66.1 486.1,66.8 			"/>
			<polygon class="st30" points="506,330.7 524.2,342.2 521.6,369.5 			"/>
			<polygon class="st31" points="506,330.7 521.6,369.5 489,404.3 			"/>
			<polygon class="st32" points="521.6,369.5 505.3,434 489,404.3 			"/>
			<polygon class="st33" points="513.5,123.2 520.7,166.9 484.1,95.5 			"/>
			<polygon class="st34" points="484.1,95.5 520.7,166.9 465.5,95.5 			"/>
			<polygon class="st35" points="465.5,95.5 520.7,166.9 487.5,141 465,123.5 464.7,123.2 464.7,123.2 423.5,91.2 			"/>
			<polygon class="st36" points="520.7,166.9 519.4,225.6 500.9,190.9 			"/>
			<polygon class="st37" points="520.7,166.9 500.9,190.9 487.5,141 			"/>
			<polygon class="st38" points="519.8,66.1 505,84.6 486.1,66.8 			"/>
			<polygon class="st39" points="500.9,190.9 519.4,225.6 475.2,311.2 494.4,221.3 			"/>
			<polygon class="st40" points="517.4,91.3 513.5,123.2 497.6,101.8 			"/>
			<polygon class="st41" points="517.4,91.3 497.6,101.8 505,84.6 			"/>
			<polygon class="st42" points="497.6,101.8 513.5,123.2 484.1,95.5 			"/>
			<polygon class="st43" points="475.2,311.2 506,330.7 475.2,379.7 			"/>
			<polygon class="st44" points="506,330.7 489,404.3 475.2,379.7 			"/>
			<polygon class="st45" points="489,404.3 505.3,434 467.4,434 			"/>
			<polygon class="st46" points="505,84.6 497.6,101.8 464,85.3 			"/>
			<polygon class="st47" points="505,84.6 464,85.3 486.1,66.8 			"/>
			<polygon class="st48" points="487.5,141 500.9,190.9 473.4,162.5 473.4,162.5 487.5,141.3 487.3,141.2 			"/>
			<polygon class="st49" points="473.4,162.5 500.9,190.9 494.4,221.3 			"/>
			<polygon class="st50" points="494.4,221.3 475.2,311.2 472.1,208.5 			"/>
			<polygon class="st51" points="473.4,162.5 494.4,221.3 472.1,208.5 473.4,162.5 			"/>
			<polygon class="st52" points="475.2,379.7 489,404.3 394.5,397.8 			"/>
			<polygon class="st53" points="489,404.3 467.4,434 394.5,397.8 			"/>
			<polygon class="st54" points="487.5,141.3 473.4,162.5 487.3,141.2 			"/>
			<polygon class="st54" points="465,123.5 487.3,141.2 473.4,162.5 464.7,123.2 			"/>
			<polygon class="st55" points="484.1,95.5 465.5,95.5 464,85.3 			"/>
			<polygon class="st56" points="475.2,311.2 475.2,379.7 394.5,397.8 408.1,383.2 			"/>
			<polygon class="st57" points="472.1,208.5 475.2,311.2 436.3,295.6 			"/>
			<polygon class="st58" points="475.2,311.2 408.1,383.2 397.5,351.3 405.5,347.2 405.5,347.2 440.9,328.9 440.9,328.9 			"/>
			<polygon class="st59" points="475.2,311.2 440.9,328.9 440.9,328.9 382.4,307.6 			"/>
			<polygon class="st60" points="475.2,311.2 382.4,307.6 405.5,283.7 			"/>
			<polygon class="st61" points="464.7,123.3 473.4,162.5 447.1,121.3 			"/>
			<path class="st62" d="M473.4,162.5L473.4,162.5L473.4,162.5z"/>
			<path class="st63" d="M473.4,162.5L473.4,162.5L473.4,162.5z"/>
			<path class="st54" d="M473.4,162.5L473.4,162.5L473.4,162.5z"/>
			<polygon class="st62" points="473.4,162.5 472.1,208.5 441.6,205.9 448.2,196.9 452.6,190.9 459.1,182 459.1,182 			"/>
			<polygon class="st64" points="473.4,162.5 473.4,162.5 473.3,162.5 473.3,162.6 423.3,172.1 422.7,171.7 422.8,171.4 			"/>
			<polygon class="st54" points="473.4,162.5 473.4,162.5 473.3,162.5 			"/>
			<polygon class="st64" points="473.4,162.5 422.8,171.4 447.1,121.3 			"/>
			<polygon class="st63" points="473.4,162.5 459.1,182 444.4,175.9 473.3,162.6 473.3,162.5 			"/>
			<polygon class="st65" points="473.3,162.6 444.4,175.9 435,180.2 435,180.2 423.3,172.1 			"/>
			<polygon class="st66" points="472.1,208.5 436.3,295.6 405.5,283.7 			"/>
			<polygon class="st67" points="472.1,208.5 405.5,283.7 399.2,202.3 441.6,205.9 			"/>
			<polygon class="st68" points="467.4,434 429.2,434 394.5,397.8 			"/>
			<polygon class="st69" points="464,85.3 465.5,95.5 449.2,81 			"/>
			<polygon class="st70" points="465.5,95.5 423.5,91.2 383.3,87 449.2,81 			"/>
			<polygon class="st71" points="423.5,91.2 464.7,123.2 447.1,121.3 			"/>
			<polygon class="st72" points="464,85.3 449.2,81 422.8,73.2 432.4,71.4 			"/>
			<polygon class="st73" points="459.1,182 459.1,182 449.3,190.5 448.7,181.2 			"/>
			<polygon class="st74" points="459.1,182 448.7,181.1 445.3,181 435,180.2 444.4,175.9 			"/>
			<polygon class="st75" points="459.1,182 452.6,190.9 449.3,190.5 			"/>
			<polygon class="st76" points="452.6,190.9 448.2,196.9 424.5,196.9 435.7,194.5 			"/>
			<polygon class="st77" points="452.6,190.9 435.7,194.5 426.1,187.1 438.3,188.9 			"/>
			<polygon class="st78" points="448.7,181.2 449.3,190.5 438.3,188.9 448.5,181.2 			"/>
			<polygon class="st79" points="449.2,81 383.3,87 422.8,73.2 422.8,73.2 422.8,73.2 			"/>
			<polygon class="st80" points="448.5,181.2 438.3,188.9 435.7,180.7 445.3,181 			"/>
			<polygon class="st81" points="448.2,196.9 441.6,205.9 399.2,202.3 416.4,198.6 424.5,196.9 			"/>
			<polygon class="st82" points="423.5,91.2 447.1,121.3 382.1,94.6 			"/>
			<polygon class="st83" points="447.1,121.3 422.4,171.5 405.5,138.6 			"/>
			<polygon class="st84" points="447.1,121.3 405.5,138.6 382.1,94.6 382.1,94.6 			"/>
			<polygon class="st85" points="382.4,307.6 440.9,328.9 375.1,323.2 			"/>
			<polygon class="st86" points="440.9,328.9 405.5,347.2 375.1,323.2 			"/>
			<polygon class="st87" points="435.7,180.7 438.3,188.9 426.1,187.1 426,187 			"/>
			<polygon class="st88" points="435.7,180.7 426,187 425.9,186.9 422.6,172.2 423.3,172.1 435,180.2 435,180.2 			"/>
			<polygon class="st76" points="435.7,194.5 424.5,196.9 416.4,198.6 425.9,187 			"/>
			<polygon class="st89" points="432.4,71.4 422.8,73.2 422.8,73.2 403.1,76.9 402.1,72.4 			"/>
			<polygon class="st90" points="394.5,397.8 429.2,434 379.6,404.9 			"/>
			<polygon class="st91" points="429.2,434 410.7,434 345.5,384.9 379.6,404.9 			"/>
			<polygon class="st92" points="425.9,187 416.4,198.6 399.2,202.3 416.4,179.5 			"/>
			<polygon class="st93" points="422.6,172.2 425.9,186.9 416.4,179.5 422.4,171.5 422.5,172 422.4,172.3 			"/>
			<polygon class="st94" points="423.5,91.2 382.1,94.6 383.3,87 			"/>
			<polygon class="st64" points="423.3,172.1 422.6,172.2 422.5,172 422.7,171.7 			"/>
			<polygon class="st65" points="422.8,171.4 422.7,171.7 422.4,171.5 			"/>
			<polygon class="st95" points="422.8,73.2 383.3,87 403.1,76.9 			"/>
			<polygon class="st88" points="422.4,171.5 422.7,171.7 422.5,172 			"/>
			<polygon class="st64" points="422.5,172 422.6,172.2 422.4,172.3 			"/>
			<polygon class="st96" points="405.5,138.6 422.4,171.5 416.4,179.5 399.2,202.3 			"/>
			<polygon class="st97" points="410.7,434 362.4,434 345.5,384.9 			"/>
			<polygon class="st98" points="397.5,351.3 408.1,383.2 345.5,384.9 			"/>
			<polygon class="st99" points="408.1,383.2 394.5,397.8 345.5,384.9 			"/>
			<polygon class="st100" points="382.1,94.6 405.5,138.6 377.3,124.7 			"/>
			<polygon class="st101" points="405.5,138.6 399.2,202.3 349.4,137.7 350.3,137.3 			"/>
			<polygon class="st102" points="399.2,202.3 405.5,283.7 391.7,279.4 			"/>
			<polygon class="st103" points="405.5,283.7 382.4,307.6 380.9,295.3 			"/>
			<polygon class="st104" points="405.5,138.6 350.3,137.3 377.3,124.7 			"/>
			<polygon class="st105" points="405.5,283.7 401.7,285.5 391.7,279.4 			"/>
			<polygon class="st106" points="405.5,347.2 405.5,347.2 347.6,342.2 375.1,323.2 			"/>
			<polygon class="st107" points="405.5,347.2 397.5,351.3 347.6,342.2 			"/>
			<polygon class="st108" points="402.1,72.4 403.1,76.9 391,76.5 			"/>
			<polygon class="st109" points="403.1,76.9 383.3,87 369.1,78.5 			"/>
			<polygon class="st110" points="401.7,285.5 380.9,295.3 373,286.7 			"/>
			<polygon class="st111" points="401.7,285.5 373,286.7 391.7,279.4 			"/>
			<polygon class="st112" points="349.4,137.7 399.2,202.3 334,178.9 348.8,138 			"/>
			<polygon class="st113" points="399.2,202.3 391.7,279.4 360,210.3 			"/>
			<polygon class="st114" points="399.2,202.3 360,210.3 334,178.9 			"/>
			<polygon class="st115" points="397.5,351.3 345.5,384.9 328.1,350.1 361.4,350.7 			"/>
			<polygon class="st116" points="397.5,351.3 361.4,350.7 347.6,342.2 			"/>
			<polygon class="st117" points="394.5,397.8 379.6,404.9 345.5,384.9 			"/>
			<polygon class="st118" points="360,210.3 391.7,279.4 336.4,276.3 			"/>
			<polygon class="st119" points="391.7,279.4 373,286.7 336.4,276.3 			"/>
			<polygon class="st120" points="391,76.9 369.1,78.5 369.6,72.4 			"/>
			<polygon class="st121" points="383.3,87 382.1,94.6 382.1,94.6 377.3,124.7 341.5,124.7 306.5,124.7 			"/>
			<polygon class="st122" points="383.3,87 306.5,124.7 358.2,84.6 			"/>
			<polygon class="st123" points="383.3,87 358.2,84.6 369.1,78.5 			"/>
			<polygon class="st124" points="380.9,295.3 382.4,307.6 363.6,307.6 			"/>
			<polygon class="st125" points="382.4,307.6 375.1,323.2 373.9,312.6 			"/>
			<polygon class="st126" points="382.4,307.6 373.9,312.6 363.6,307.6 			"/>
			<polygon class="st127" points="373,286.7 380.9,295.3 363.6,296.6 			"/>
			<polygon class="st128" points="380.9,295.3 363.6,307.6 363.6,296.6 			"/>
			<polygon class="st129" points="377.3,124.7 349,137.3 328.8,147.4 341.5,124.7 			"/>
			<polygon class="st130" points="373.9,312.6 375.1,323.2 318.1,330 			"/>
			<polygon class="st131" points="375.1,323.2 347.6,342.2 318.1,330 			"/>
			<polygon class="st132" points="373.9,312.6 318.1,330 363.6,307.6 			"/>
			<polygon class="st133" points="373,286.7 363.6,296.6 336.4,276.3 			"/>
			<polygon class="st134" points="369.6,72.4 369.1,78.5 338,79.6 			"/>
			<polygon class="st135" points="369.6,72.4 338,79.6 310.4,85.8 330.3,74.7 			"/>
			<polygon class="st136" points="369.1,78.5 357.3,84.4 338,79.6 			"/>
			<polygon class="st137" points="363.6,296.6 363.6,307.6 336.4,276.3 			"/>
			<polygon class="st138" points="336.4,276.3 363.6,307.6 318.1,330 			"/>
			<polygon class="st139" points="345.5,384.9 362.4,434 316.2,395.8 			"/>
			<polygon class="st140" points="362.4,434 216.9,434 316.2,395.8 			"/>
			<polygon class="st141" points="361.4,350.7 328.1,350.1 347.6,342.2 			"/>
			<polygon class="st142" points="334,178.9 360,210.3 339.7,198.2 			"/>
			<polygon class="st143" points="360,210.3 336.4,276.3 277.9,276.3 313.2,247.9 			"/>
			<polygon class="st144" points="360,210.3 313.2,247.9 265.2,198.2 316.5,204.7 			"/>
			<polygon class="st76" points="360,210.3 316.5,204.7 339.7,198.2 			"/>
			<polygon class="st145" points="358.2,84.6 306.5,124.7 321.7,98.6 			"/>
			<polygon class="st146" points="358.2,84.6 321.7,98.6 327.8,88.1 327.8,88.1 327.8,88.1 			"/>
			<polygon class="st147" points="358.2,84.6 327.8,88.1 338,79.6 357.3,84.4 			"/>
			<polygon class="st148" points="348.8,138 334,178.9 328.8,147.4 328.8,147.4 			"/>
			<polygon class="st149" points="347.6,342.2 328.1,350.1 318.1,330 			"/>
			<polygon class="st150" points="328.1,350.1 345.5,384.9 316.2,395.8 306.6,306.9 318.1,330 			"/>
			<polygon class="st151" points="341.5,124.7 328.8,147.4 328.8,147.4 308.8,183 306.5,124.7 			"/>
			<polygon class="st152" points="334,178.9 339.7,198.2 328.2,186.5 			"/>
			<polygon class="st153" points="328.2,186.5 339.7,198.2 319,188 			"/>
			<polygon class="st154" points="339.7,198.2 325,202.3 316.7,196.9 			"/>
			<polygon class="st155" points="339.7,198.2 316.7,196.9 316.7,196.9 316.7,196.9 308.8,183 			"/>
			<polygon class="st156" points="338,79.6 327.8,88.1 327.8,88.1 327.8,88.1 327.7,88.1 316.5,97.4 310.4,85.8 			"/>
			<polygon class="st157" points="336.4,276.3 318.1,330 306.6,306.9 			"/>
			<polygon class="st158" points="336.4,276.3 306.6,306.9 277.9,276.3 			"/>
			<polygon class="st159" points="328.8,147.4 334,178.9 319,183 			"/>
			<polygon class="st160" points="334,178.9 328.2,186.5 319,183 			"/>
			<polygon class="st161" points="328.8,147.4 319,183 308.8,183 			"/>
			<polygon class="st162" points="328.2,186.5 319,188 319,183 			"/>
			<polygon class="st163" points="327.8,88.1 321.7,98.6 306.5,124.7 293,118.8 327.7,88.1 			"/>
			<polygon class="st164" points="325,202.3 316.5,204.7 298.4,185 309.4,192.1 311,193.2 316.7,196.9 316.7,196.9 			"/>
			<polygon class="st165" points="319,183 319,188 308.8,183 			"/>
			<polygon class="st166" points="316.7,196.9 311,193.2 309.4,192.1 308.8,183 			"/>
			<polygon class="st167" points="310.4,85.8 316.5,97.4 291.7,91.9 			"/>
			<polygon class="st168" points="298.4,185 316.5,204.7 265.2,198.2 271.6,155.8 298.2,184.8 			"/>
			<polygon class="st169" points="316.5,97.4 293,118.8 294,108.7 			"/>
			<polygon class="st170" points="316.5,97.4 294,108.7 291.7,91.9 			"/>
			<polygon class="st171" points="306.6,306.9 316.2,395.8 282.6,350.9 			"/>
			<polygon class="st172" points="282.6,350.9 316.2,395.8 246.3,361.7 			"/>
			<polygon class="st173" points="316.2,395.8 216.9,434 246.3,361.7 			"/>
			<polygon class="st174" points="265.2,198.2 313.2,247.9 267,241.1 			"/>
			<polygon class="st175" points="313.2,247.9 277.9,276.3 267,241.1 			"/>
			<polygon class="st176" points="310.4,85.8 291.7,91.9 293,77.3 			"/>
			<polygon class="st177" points="308.8,183 309.4,192.1 298.4,185 298.4,185 			"/>
			<polygon class="st178" points="306.5,124.7 308.8,183 298.4,185 298.4,185 298.4,185 			"/>
			<polygon class="st179" points="277.9,276.3 306.6,306.9 256.1,274.9 			"/>
			<polygon class="st180" points="306.6,306.9 282.6,350.9 225.8,305.3 			"/>
			<polygon class="st181" points="306.6,306.9 225.8,305.3 231.6,296.6 			"/>
			<polygon class="st182" points="306.6,306.9 231.6,296.6 256.1,274.9 			"/>
			<polygon class="st183" points="306.5,124.7 298.4,185 293,118.8 			"/>
			<polygon class="st6" points="293,118.8 298.4,185 298.2,184.8 272,155.1 			"/>
			<polygon class="st184" points="291.7,91.9 294,108.7 270.3,108.7 			"/>
			<polygon class="st185" points="294,108.7 293,118.8 279.5,130.2 			"/>
			<polygon class="st186" points="294,108.7 279.5,130.2 256.5,128.9 			"/>
			<polygon class="st187" points="294,108.7 256.5,128.9 270.1,108.9 270.7,108.9 270.3,108.7 			"/>
			<polygon class="st188" points="293,77.3 291.7,91.9 270.6,89.5 			"/>
			<polygon class="st189" points="293,118.8 271.6,154.6 272,155.1 271.6,155.8 251.3,154.6 279.5,130.2 			"/>
			<polygon class="st190" points="293,77.3 270.6,89.5 270.3,89.5 			"/>
			<polygon class="st191" points="293,77.3 270.3,89.5 248.3,101.6 254.9,84.4 			"/>
			<polygon class="st192" points="293,77.3 254.9,84.4 249.8,73.7 			"/>
			<polygon class="st193" points="293,77.3 249.8,73.7 269.5,60.5 			"/>
			<polygon class="st194" points="291.7,91.9 270.3,108.7 270.3,108.7 263.5,104.1 			"/>
			<polygon class="st195" points="291.7,91.9 263.5,104.1 270.2,89.7 270.6,89.5 			"/>
			<polygon class="st196" points="282.6,350.9 246.3,361.7 225.8,305.3 			"/>
			<polygon class="st197" points="279.5,130.2 251.3,154.6 256.5,128.9 			"/>
			<polygon class="st198" points="267,241.1 277.9,276.3 259.7,234.5 			"/>
			<polygon class="st199" points="259.7,234.5 277.9,276.3 256.1,274.9 			"/>
			<polygon class="st200" points="271.6,155.8 265.2,198.2 259.7,171.5 			"/>
			<polygon class="st201" points="271.6,155.8 259.7,171.5 249.4,185 251.3,154.6 			"/>
			<polygon class="st191" points="270.3,89.5 270.2,89.7 248.3,101.6 			"/>
			<polygon class="st202" points="263.5,104.1 270.3,108.7 270.1,108.7 248.3,101.6 			"/>
			<polygon class="st203" points="270.2,89.7 263.5,104.1 248.3,101.6 			"/>
			<polygon class="st204" points="270.1,108.9 256.5,128.9 238,112.5 			"/>
			<polygon class="st205" points="270.1,108.7 238,112.5 248.3,101.6 			"/>
			<polygon class="st206" points="269.5,60.5 249.8,73.7 257.4,60 			"/>
			<polygon class="st207" points="269.5,60.5 257.4,60 233,59 252,49.7 			"/>
			<polygon class="st208" points="265.2,198.2 267,241.1 259.7,234.5 			"/>
			<polygon class="st209" points="259.7,171.5 265.2,198.2 254.3,205.8 			"/>
			<polygon class="st210" points="265.2,198.2 259.7,234.5 254.3,205.8 			"/>
			<polygon class="st211" points="249.4,185 259.7,171.5 254.3,205.8 			"/>
			<polygon class="st212" points="254.3,205.8 259.7,234.5 256.1,274.9 			"/>
			<polygon class="st213" points="257.4,60 249.8,73.7 245.2,71.1 			"/>
			<polygon class="st214" points="257.4,60 245.2,71.1 233,59 			"/>
			<polygon class="st215" points="254.3,205.8 256.1,274.9 231.6,296.6 			"/>
			<polygon class="st216" points="249.8,73.7 254.9,84.4 245.2,71.1 			"/>
			<polygon class="st217" points="245.2,71.1 254.9,84.4 248.3,101.6 			"/>
			<polygon class="st218" points="249.4,185 254.3,205.8 232.2,249.9 			"/>
			<polygon class="st219" points="254.3,205.8 231.6,296.6 232.2,249.9 			"/>
			<polygon class="st220" points="249.4,185 232.2,249.9 216.9,201.5 			"/>
			<polygon class="st221" points="245.2,71.1 248.3,101.6 231,80.9 			"/>
			<polygon class="st222" points="231,80.9 248.3,101.6 228.4,90.6 230.4,80.2 230.7,81.1 			"/>
			<polygon class="st223" points="248.3,101.6 238,112.5 228.4,90.6 			"/>
			<polygon class="st224" points="225.8,305.3 246.3,361.7 216.9,434 			"/>
			<polygon class="st221" points="245.2,71.1 231,80.9 230.8,80.7 230.9,79.9 			"/>
			<polygon class="st221" points="245.2,71.1 230.9,79.9 233,59 			"/>
			<polygon class="st225" points="233,59 230.9,79.9 230.4,80.2 227.3,72.3 			"/>
			<polygon class="st226" points="216.9,201.5 232.2,249.9 213.5,202.3 			"/>
			<polygon class="st227" points="213.5,202.3 232.2,249.9 178.9,243.2 			"/>
			<polygon class="st228" points="232.2,249.9 231.6,296.6 203.8,257 195.6,245.3 			"/>
			<polygon class="st229" points="203.8,257 231.6,296.6 225.8,305.3 			"/>
			<polygon class="st230" points="230.8,80.7 231,80.9 230.7,81.1 			"/>
			<polygon class="st230" points="230.9,79.9 230.8,80.7 230.4,80.2 230.4,80.2 			"/>
			<polygon class="st230" points="230.8,80.7 230.7,81.1 230.4,80.2 			"/>
			<polygon class="st231" points="230.4,80.2 230.4,80.2 228.4,90.6 227.3,72.3 			"/>
			<polygon class="st232" points="203.8,257 225.8,305.3 183.1,323.2 			"/>
			<polygon class="st233" points="225.8,305.3 216.9,434 183.1,323.2 			"/>
			<polygon class="st234" points="183.1,323.2 216.9,434 197.1,405.9 			"/>
			<polygon class="st235" points="197.1,405.9 216.9,434 177.7,434 			"/>
			<polygon class="st236" points="216.9,201.5 213.5,202.3 195.6,206.3 178.9,210 203.2,201.5 			"/>
			<polygon class="st237" points="213.5,202.3 178.9,243.2 195.6,206.3 			"/>
			<polygon class="st238" points="195.6,245.3 203.8,257 183.1,323.2 			"/>
			<polygon class="st239" points="178.9,298.9 197.1,405.9 160.2,334.3 			"/>
			<polygon class="st240" points="160.2,334.3 197.1,405.9 163.1,383.2 163.1,383.2 163.1,383.1 			"/>
			<polygon class="st241" points="197.1,405.9 177.7,434 163.1,383.2 			"/>
			<polygon class="st242" points="195.6,206.3 178.9,243.2 149.2,272.4 			"/>
			<polygon class="st243" points="195.6,206.3 149.2,272.4 146.7,262.7 			"/>
			<polygon class="st244" points="195.6,206.3 146.7,262.7 171.6,222.1 			"/>
			<polygon class="st245" points="195.6,245.3 183.1,323.2 178.9,298.9 			"/>
			<polygon class="st246" points="195.6,245.3 178.9,298.9 178.9,243.2 			"/>
			<polygon class="st247" points="195.6,206.3 171.6,222.1 178.9,210 			"/>
			<polygon class="st248" points="178.9,243.2 178.9,298.9 160.2,334.3 			"/>
			<polygon class="st249" points="178.9,210 171.6,222.1 146.7,262.7 143.4,249.9 			"/>
			<polygon class="st250" points="178.9,210 143.4,249.9 141.1,242.5 			"/>
			<polygon class="st251" points="178.9,243.2 160.2,334.3 155.6,356.9 155.6,297.5 			"/>
			<polygon class="st252" points="178.9,243.2 155.6,297.5 149.2,272.4 			"/>
			<polygon class="st253" points="178.9,210 141,242.4 160.2,219.9 			"/>
			<polygon class="st254" points="163.1,383.2 177.7,434 162.4,409.5 155.6,356.9 163.1,383.1 			"/>
			<polygon class="st255" points="162.4,409.5 177.7,434 141.1,434 			"/>
			<polygon class="st256" points="160.2,334.3 163.1,383.1 155.6,356.9 			"/>
			<polygon class="st257" points="155.6,356.9 162.4,409.5 132.2,382.9 			"/>
			<polygon class="st258" points="162.4,409.5 141.1,434 132.2,382.9 			"/>
			<polygon class="st259" points="160.2,219.9 141,242.4 141,242.4 134.9,242.4 			"/>
			<polygon class="st260" points="160.2,219.9 134.9,242.4 115.8,218.9 109.6,211.4 			"/>
			<polygon class="st261" points="155.6,297.5 155.6,356.9 134.9,279.7 			"/>
			<polygon class="st262" points="149.2,272.4 155.6,297.5 134.9,279.7 143.4,249.9 146.7,262.7 			"/>
			<polygon class="st263" points="134.9,279.7 155.6,356.9 132.2,382.9 			"/>
			<polygon class="st264" points="141.1,242.5 143.4,249.9 134.9,242.4 141,242.4 140.3,243.2 			"/>
			<polygon class="st265" points="143.4,249.9 134.9,279.7 129.2,281.5 			"/>
			<polygon class="st266" points="143.4,249.9 129.2,281.5 134.9,242.4 			"/>
			<polygon class="st267" points="132.2,382.9 141.1,434 109,351.6 			"/>
			<polygon class="st268" points="109,351.6 141.1,434 138.8,434 			"/>
			<polygon class="st269" points="109,351.6 138.8,434 113.8,393.9 100,326.6 109,351.5 			"/>
			<polygon class="st270" points="113.8,393.9 138.8,434 126.3,434 			"/>
			<polygon class="st271" points="115.8,218.9 134.9,242.4 83.7,259.2 			"/>
			<polygon class="st272" points="134.9,242.4 129.2,281.5 122.9,281.5 			"/>
			<polygon class="st273" points="134.9,242.4 122.9,281.5 119.8,250.5 119.8,250.5 			"/>
			<polygon class="st274" points="134.9,279.7 132.2,382.9 129.2,281.5 			"/>
			<polygon class="st275" points="134.9,242.4 119.8,250.5 109.3,256.2 87.9,267.8 83.7,259.2 			"/>
			<polygon class="st276" points="129.2,281.5 132.2,382.9 122.9,281.5 			"/>
			<polygon class="st277" points="122.9,281.5 132.2,382.9 109,351.6 109,351.5 			"/>
			<polygon class="st278" points="113.8,393.9 126.3,434 115.8,434 			"/>
			<polygon class="st279" points="119.8,250.5 122.9,281.5 109.2,274.9 109.2,274.9 			"/>
			<polygon class="st280" points="122.9,281.5 109,351.5 109.2,274.9 			"/>
			<polygon class="st281" points="119.8,250.5 109.2,274.9 109.3,256.2 			"/>
			<polygon class="st282" points="113.8,393.9 115.8,434 87.9,267.8 100,326.6 			"/>
			<polygon class="st283" points="87.9,267.8 115.8,434 83.7,434 			"/>
			<polygon class="st284" points="115.8,218.9 83.7,259.2 75.1,219.6 			"/>
			<polygon class="st285" points="115.8,218.9 75.1,219.6 75.1,219.6 52.6,220 56,212.4 			"/>
			<polygon class="st286" points="115.8,218.9 56,212.4 68.8,206 			"/>
			<polygon class="st287" points="115.8,218.9 68.8,206 109.6,211.4 			"/>
			<polygon class="st288" points="109.6,211.4 68.8,206 59.5,204.8 73.8,194.9 			"/>
			<polygon class="st242" points="87.9,267.8 109.3,256.2 100,326.6 			"/>
			<polygon class="st289" points="109.3,256.2 109.2,274.9 109.2,274.9 109,351.5 100,326.6 			"/>
			<polygon class="st290" points="83.7,259.2 87.9,267.8 78.9,392.7 			"/>
			<polygon class="st291" points="87.9,267.8 83.7,434 78.9,392.7 			"/>
			<polygon class="st292" points="75.1,219.6 83.7,259.2 59,224.6 			"/>
			<polygon class="st293" points="59,224.6 83.7,259.2 34.4,255.7 			"/>
			<polygon class="st294" points="83.7,259.2 78.9,392.7 70.1,315.7 			"/>
			<polygon class="st295" points="83.7,259.2 70.1,315.7 51.1,307.2 			"/>
			<polygon class="st296" points="83.7,259.2 51.1,307.2 34.4,255.7 			"/>
			<polygon class="st297" points="78.9,392.7 83.7,434 71.7,387.2 70.1,315.7 			"/>
			<polygon class="st298" points="71.7,387.3 83.7,434 38.8,434 51.1,307.2 			"/>
			<polygon class="st299" points="75.1,219.6 59,224.6 52.6,220 			"/>
			<polygon class="st300" points="73.8,194.9 59.5,204.8 61.7,190 			"/>
			<polygon class="st301" points="71.7,387.2 51.1,307.2 70.1,315.7 			"/>
			<polygon class="st302" points="59.5,204.8 68.8,206 56,212.4 			"/>
			<polygon class="st303" points="61.7,190 59.5,204.8 52.6,199.6 			"/>
			<polygon class="st304" points="61.7,190 52.6,199.6 39.9,177.4 			"/>
			<polygon class="st305" points="59.5,204.8 56,212.4 52.6,220 52.6,199.6 			"/>
			<polygon class="st306" points="59,224.6 34.4,255.7 52.6,220 			"/>
			<polygon class="st307" points="52.6,199.6 52.6,220 20.1,172.3 			"/>
			<polygon class="st308" points="39.9,177.4 52.6,199.6 20.1,172.3 			"/>
			<polygon class="st309" points="20.1,172.3 52.6,220 11,181.9 			"/>
			<polygon class="st310" points="52.6,220 34.4,255.7 32.2,238.1 			"/>
			<polygon class="st311" points="52.6,220 32.2,238.1 11,181.9 			"/>
			<polygon class="st312" points="34.4,255.7 51.1,307.2 43,323.2 			"/>
			<polygon class="st313" points="51.1,307.2 38.8,434 43,323.2 			"/>
			<polygon class="st314" points="34.4,255.7 43,323.2 19.9,342.2 32.2,238.1 			"/>
			<polygon class="st315" points="43,323.2 38.8,434 18.3,434 			"/>
			<polygon class="st316" points="43,323.2 18.3,434 0,434 			"/>
			<polygon class="st317" points="43,323.2 0,434 0,358.7 11.9,348.8 19.9,342.2 			"/>
			<polygon class="st318" points="39.9,177.4 20.1,172.3 0,161.3 			"/>
			<polygon class="st319" points="11,181.9 32.2,238.1 0,193.5 			"/>
			<polygon class="st320" points="0,193.5 32.2,238.1 0,314.7 			"/>
			<polygon class="st321" points="32.2,238.1 19.9,342.2 18.3,290.4 			"/>
			<polygon class="st322" points="32.2,238.1 0,358.7 0,314.7 			"/>
			<polygon class="st323" points="20.1,172.3 0,193.5 0,161.3 			"/>
			<polygon class="st324" points="18.3,290.4 19.9,342.2 11.9,348.8 			"/>
			<polygon class="st325" points="18.3,290.4 11.9,348.8 0,358.7 			"/>
		</g>
	</g>
</g>
</svg>
